<?xml version="1.0" encoding="UTF-8"?>
<svg version="1.1" xmlns="http://www.w3.org/2000/svg" width="48" height="48">
<path d="M0 0 C15.84 0 31.68 0 48 0 C48 15.84 48 31.68 48 48 C32.16 48 16.32 48 0 48 C0 32.16 0 16.32 0 0 Z " fill="#F1B451" transform="translate(0,0)"/>
<path d="M0 0 C15.84 0 31.68 0 48 0 C48 4.62 48 9.24 48 14 C45.69 12.68 43.38 11.36 41 10 C43.475 11.98 43.475 11.98 46 14 C44.35989599 18.92031204 39.91323101 20.89889187 35.75 23.75 C34.89019531 24.36488281 34.03039063 24.97976562 33.14453125 25.61328125 C32.30792969 26.18949219 31.47132812 26.76570313 30.609375 27.359375 C29.84592773 27.89014648 29.08248047 28.42091797 28.29589844 28.96777344 C25.38974893 30.27436639 23.99521159 29.96296543 21 29 C17.90215928 27.18715745 15.02636101 25.15473487 12.09375 23.0859375 C9.13418488 20.98177661 9.13418488 20.98177661 6.21875 19.6640625 C3.75 18.4375 3.75 18.4375 0 15 C0 10.05 0 5.1 0 0 Z " fill="#EDDBC0" transform="translate(0,0)"/>
<path d="M0 0 C3.14004551 2.07826611 5.96054522 4.484284 8.8125 6.9375 C9.58787109 7.58396484 10.36324219 8.23042969 11.16210938 8.89648438 C16.8401892 13.6803784 16.8401892 13.6803784 18 16 C3.48 16 -11.04 16 -26 16 C-20.37281359 9.24737631 -20.37281359 9.24737631 -17.73828125 7.26171875 C-17.17689453 6.83439453 -16.61550781 6.40707031 -16.03710938 5.96679688 C-15.46798828 5.54462891 -14.89886719 5.12246094 -14.3125 4.6875 C-13.73177734 4.24599609 -13.15105469 3.80449219 -12.55273438 3.34960938 C-5.85899389 -1.70358431 -5.85899389 -1.70358431 0 0 Z " fill="#EE988E" transform="translate(28,32)"/>
<path d="M0 0 C7.59 0 15.18 0 23 0 C23 4.62 23 9.24 23 14 C20.64875 12.453125 20.64875 12.453125 18.25 10.875 C12.37490843 7.12380369 6.28759533 3.9956606 0 1 C0 0.67 0 0.34 0 0 Z " fill="#FDFBFB" transform="translate(25,0)"/>
<path d="M0 0 C7.59 0 15.18 0 23 0 C20.3902003 1.95734978 18.27305619 3.49480552 15.46875 4.97265625 C14.82292969 5.31490234 14.17710938 5.65714844 13.51171875 6.00976562 C12.84785156 6.35716797 12.18398437 6.70457031 11.5 7.0625 C10.83613281 7.41376953 10.17226562 7.76503906 9.48828125 8.12695312 C6.34237729 9.7878146 3.18201186 11.40899407 0 13 C0 8.71 0 4.42 0 0 Z " fill="#FEFCFC" transform="translate(0,0)"/>
<path d="M0 0 C5.28 0 10.56 0 16 0 C16 0.66 16 1.32 16 2 C14.35 2 12.7 2 11 2 C11 2.66 11 3.32 11 4 C7.37 4 3.74 4 0 4 C0 2.68 0 1.36 0 0 Z " fill="#E1B09F" transform="translate(16,16)"/>
<path d="M0 0 C0.9075 0.53625 1.815 1.0725 2.75 1.625 C3.38164062 1.97046875 4.01328125 2.3159375 4.6640625 2.671875 C6.38192064 3.61635477 8.06899045 4.61639427 9.75 5.625 C9.75 5.955 9.75 6.285 9.75 6.625 C6.53683885 6.90041381 5.07586375 6.83388702 2.3125 5.0625 C-1.03055901 3.18712543 -2.61506123 3.6195914 -6.25 4.625 C-6.95125 4.99625 -7.6525 5.3675 -8.375 5.75 C-10.75734567 6.86176131 -11.79279543 6.34890674 -14.25 5.625 C-4.49628099 -0.51880165 -4.49628099 -0.51880165 0 0 Z " fill="#D68D8D" transform="translate(26.25,0.375)"/>
<path d="M0 0 C5.75 2.75 5.75 2.75 8 5 C8.17502995 7.58103306 8.23162279 10.05308163 8.1953125 12.6328125 C8.1924826 13.38464813 8.18965271 14.13648376 8.18673706 14.91110229 C8.17552874 17.31589578 8.15042352 19.72031881 8.125 22.125 C8.11497102 23.75390088 8.10584503 25.38280758 8.09765625 27.01171875 C8.07558735 31.00795556 8.04105351 35.00391494 8 39 C7.34 38.67 6.68 38.34 6 38 C6 27.11 6 16.22 6 5 C3.525 4.01 3.525 4.01 1 3 C0.67 2.01 0.34 1.02 0 0 Z " fill="#E9AF76" transform="translate(40,9)"/>
<path d="M0 0 C0 3.3 0 6.6 0 10 C-2.9719385 8.87548273 -5.33440687 7.77706209 -8 6 C-6.72879117 2.18637351 -4.19078006 0 0 0 Z " fill="#CBAFAC" transform="translate(8,9)"/>
<path d="M0 0 C4.29 0 8.58 0 13 0 C13 0.99 13 1.98 13 3 C10 5 10 5 7.625 4.875 C5 4 5 4 0 0 Z " fill="#F1E8C6" transform="translate(16,25)"/>
<path d="M0 0 C2.31 1.65 4.62 3.3 7 5 C6 8 6 8 2.9375 9.6875 C1.968125 10.120625 0.99875 10.55375 0 11 C0 7.37 0 3.74 0 0 Z " fill="#CAC4BC" transform="translate(39,9)"/>
<path d="M0 0 C0.99 0.99 1.98 1.98 3 3 C-1.95 3 -6.9 3 -12 3 C-7.05298594 -0.71026055 -5.92958772 -1.45214393 0 0 Z " fill="#C5C0BD" transform="translate(28,4)"/>
</svg>
