<?xml version="1.0" encoding="UTF-8"?>
<svg version="1.1" xmlns="http://www.w3.org/2000/svg" width="48" height="48">
<path d="M0 0 C15.84 0 31.68 0 48 0 C48 15.84 48 31.68 48 48 C32.16 48 16.32 48 0 48 C0 32.16 0 16.32 0 0 Z " fill="#9BD1E1" transform="translate(0,0)"/>
<path d="M0 0 C15.84 0 31.68 0 48 0 C48 4.29 48 8.58 48 13 C45.525 12.01 45.525 12.01 43 11 C42.34 11 41.68 11 41 11 C43.475 12.485 43.475 12.485 46 14 C44.35989599 18.92031204 39.91323101 20.89889187 35.75 23.75 C34.89019531 24.36488281 34.03039063 24.97976562 33.14453125 25.61328125 C32.30792969 26.18949219 31.47132812 26.76570313 30.609375 27.359375 C29.84592773 27.89014648 29.08248047 28.42091797 28.29589844 28.96777344 C25.38324051 30.27729255 24.00168212 29.97170619 21 29 C17.921875 27.1875 17.921875 27.1875 14.75 25 C13.16445313 23.9171875 13.16445313 23.9171875 11.546875 22.8125 C9 21 9 21 8 20 C7.92773498 18.14712498 7.9161878 16.29166122 7.9375 14.4375 C7.94652344 13.42558594 7.95554687 12.41367188 7.96484375 11.37109375 C7.97644531 10.58863281 7.98804688 9.80617188 8 9 C4.04 10.98 4.04 10.98 0 13 C0 8.71 0 4.42 0 0 Z " fill="#D9ECF2" transform="translate(0,0)"/>
<path d="M0 0 C4.6117045 1.94769035 8.08253612 4.97722656 11.85546875 8.22265625 C12.63083984 8.86912109 13.40621094 9.51558594 14.20507812 10.18164062 C19.88315795 14.96553465 19.88315795 14.96553465 21.04296875 17.28515625 C6.52296875 17.28515625 -7.99703125 17.28515625 -22.95703125 17.28515625 C-19.21245977 12.6044419 -15.77147135 9.48101431 -11.08203125 5.91015625 C-10.38722656 5.35199219 -9.69242188 4.79382812 -8.9765625 4.21875 C-5.91907053 1.8867646 -3.87498957 0.37367799 0 0 Z " fill="#83C5D6" transform="translate(24.95703125,30.71484375)"/>
<path d="M0 0 C7.59 0 15.18 0 23 0 C23 4.29 23 8.58 23 13 C18 11 18 11 16 10 C16 9.34 16 8.68 16 8 C15.43152344 7.82984375 14.86304688 7.6596875 14.27734375 7.484375 C9.0677886 5.84932263 4.64636859 3.86690828 0 1 C0 0.67 0 0.34 0 0 Z " fill="#FBFDFD" transform="translate(25,0)"/>
<path d="M0 0 C7.59 0 15.18 0 23 0 C20.3902003 1.95734978 18.27305619 3.49480552 15.46875 4.97265625 C14.82292969 5.31490234 14.17710938 5.65714844 13.51171875 6.00976562 C12.84785156 6.35716797 12.18398437 6.70457031 11.5 7.0625 C10.83613281 7.41376953 10.17226562 7.76503906 9.48828125 8.12695312 C6.34237729 9.7878146 3.18201186 11.40899407 0 13 C0 8.71 0 4.42 0 0 Z " fill="#FCFDFD" transform="translate(0,0)"/>
<path d="M0 0 C0 3.3 0 6.6 0 10 C-4.75 8.125 -4.75 8.125 -7 7 C-7 15.25 -7 23.5 -7 32 C-7.33 32 -7.66 32 -8 32 C-8.17406637 27.41714498 -8.28078485 22.83513707 -8.375 18.25 C-8.42527344 16.94804687 -8.47554687 15.64609375 -8.52734375 14.3046875 C-8.67234457 4.92796764 -8.67234457 4.92796764 -6.70800781 2.21679688 C-4.542332 0.72386291 -2.63986563 0 0 0 Z " fill="#9CCCDA" transform="translate(8,9)"/>
<path d="M0 0 C5.28 0 10.56 0 16 0 C15.67 0.66 15.34 1.32 15 2 C13.68 2 12.36 2 11 2 C11 2.66 11 3.32 11 4 C7.37 4 3.74 4 0 4 C0 2.68 0 1.36 0 0 Z " fill="#CBD7DA" transform="translate(16,16)"/>
<path d="M0 0 C0.9075 0.53625 1.815 1.0725 2.75 1.625 C3.38164062 1.97046875 4.01328125 2.3159375 4.6640625 2.671875 C6.38192064 3.61635477 8.06899045 4.61639427 9.75 5.625 C8.125 6.3125 8.125 6.3125 5.75 6.625 C4.326875 5.8825 4.326875 5.8825 2.875 5.125 C-0.82820007 3.34746397 -2.35691854 3.52478133 -6.25 4.625 C-6.95125 4.99625 -7.6525 5.3675 -8.375 5.75 C-10.75734567 6.86176131 -11.79279543 6.34890674 -14.25 5.625 C-4.49628099 -0.51880165 -4.49628099 -0.51880165 0 0 Z " fill="#86BBC7" transform="translate(26.25,0.375)"/>
<path d="M0 0 C4.29 0 8.58 0 13 0 C13 0.99 13 1.98 13 3 C10 5 10 5 7.625 4.875 C5 4 5 4 0 0 Z " fill="#DCF2F9" transform="translate(16,25)"/>
<path d="M0 0 C2.31 1.65 4.62 3.3 7 5 C6 8 6 8 2.9375 9.6875 C1.968125 10.120625 0.99875 10.55375 0 11 C0 7.37 0 3.74 0 0 Z " fill="#D0D8DA" transform="translate(39,9)"/>
<path d="M0 0 C1.32 0.99 2.64 1.98 4 3 C-1.28 3 -6.56 3 -12 3 C-7.02880033 -0.72839975 -5.95006166 -1.4280148 0 0 Z " fill="#CFD5D7" transform="translate(28,4)"/>
<path d="M0 0 C0 2.64 0 5.28 0 8 C-2.475 7.01 -2.475 7.01 -5 6 C-5 4.68 -5 3.36 -5 2 C-1.125 0 -1.125 0 0 0 Z " fill="#D0D5D6" transform="translate(8,11)"/>
</svg>
